<mxfile host="Electron" modified="2023-08-19T22:06:45.517Z" agent="Mozilla/5.0 (Windows NT 10.0; Win64; x64) AppleWebKit/537.36 (KHTML, like Gecko) draw.io/21.6.1 Chrome/112.0.5615.204 Electron/24.6.1 Safari/537.36" etag="gMrs0Fzzvd3JkOCbuKpn" version="21.6.1" type="device">
  <diagram name="PÃ¡gina-1" id="A7tceK6vV1O0fZQoj8Uq">
    <mxGraphModel dx="348" dy="472" grid="1" gridSize="10" guides="1" tooltips="1" connect="1" arrows="1" fold="1" page="1" pageScale="1" pageWidth="827" pageHeight="1169" math="0" shadow="0">
      <root>
        <mxCell id="0" />
        <mxCell id="1" parent="0" />
        <mxCell id="eH5JWXhEJGaev719BXgN-16" value="" style="edgeStyle=orthogonalEdgeStyle;rounded=0;orthogonalLoop=1;jettySize=auto;html=1;endArrow=none;endFill=0;" parent="1" source="eH5JWXhEJGaev719BXgN-1" target="eH5JWXhEJGaev719BXgN-15" edge="1">
          <mxGeometry relative="1" as="geometry" />
        </mxCell>
        <mxCell id="eH5JWXhEJGaev719BXgN-1" value="Activity" style="rounded=0;whiteSpace=wrap;html=1;" parent="1" vertex="1">
          <mxGeometry x="1090" y="510" width="150" height="80" as="geometry" />
        </mxCell>
        <mxCell id="eH5JWXhEJGaev719BXgN-8" value="" style="rounded=0;orthogonalLoop=1;jettySize=auto;html=1;endArrow=none;endFill=0;" parent="1" source="eH5JWXhEJGaev719BXgN-4" target="eH5JWXhEJGaev719BXgN-1" edge="1">
          <mxGeometry relative="1" as="geometry" />
        </mxCell>
        <mxCell id="eH5JWXhEJGaev719BXgN-4" value="&lt;font style=&quot;font-size: 10px;&quot;&gt;Title&lt;/font&gt;" style="ellipse;whiteSpace=wrap;html=1;" parent="1" vertex="1">
          <mxGeometry x="995" y="514" width="70" height="40" as="geometry" />
        </mxCell>
        <mxCell id="eH5JWXhEJGaev719BXgN-5" value="&lt;font style=&quot;font-size: 10px;&quot;&gt;Description&lt;/font&gt;" style="ellipse;whiteSpace=wrap;html=1;" parent="1" vertex="1">
          <mxGeometry x="1020" y="460" width="70" height="40" as="geometry" />
        </mxCell>
        <mxCell id="eH5JWXhEJGaev719BXgN-9" value="" style="endArrow=none;html=1;rounded=0;exitX=1;exitY=1;exitDx=0;exitDy=0;entryX=0.109;entryY=-0.008;entryDx=0;entryDy=0;endFill=0;entryPerimeter=0;" parent="1" source="eH5JWXhEJGaev719BXgN-5" target="eH5JWXhEJGaev719BXgN-1" edge="1">
          <mxGeometry width="50" height="50" relative="1" as="geometry">
            <mxPoint x="920" y="570" as="sourcePoint" />
            <mxPoint x="970" y="520" as="targetPoint" />
          </mxGeometry>
        </mxCell>
        <mxCell id="eH5JWXhEJGaev719BXgN-10" value="&lt;font style=&quot;font-size: 10px;&quot;&gt;Datetime&lt;/font&gt;" style="ellipse;whiteSpace=wrap;html=1;" parent="1" vertex="1">
          <mxGeometry x="1240" y="460" width="70" height="40" as="geometry" />
        </mxCell>
        <mxCell id="eH5JWXhEJGaev719BXgN-11" value="" style="endArrow=none;html=1;rounded=0;exitX=0;exitY=1;exitDx=0;exitDy=0;entryX=0.873;entryY=-0.004;entryDx=0;entryDy=0;endFill=0;entryPerimeter=0;" parent="1" source="eH5JWXhEJGaev719BXgN-10" target="eH5JWXhEJGaev719BXgN-1" edge="1">
          <mxGeometry width="50" height="50" relative="1" as="geometry">
            <mxPoint x="920" y="660" as="sourcePoint" />
            <mxPoint x="970" y="610" as="targetPoint" />
          </mxGeometry>
        </mxCell>
        <mxCell id="eH5JWXhEJGaev719BXgN-14" value="Activity Type" style="rounded=0;whiteSpace=wrap;html=1;" parent="1" vertex="1">
          <mxGeometry x="1090" y="300" width="150" height="80" as="geometry" />
        </mxCell>
        <mxCell id="eH5JWXhEJGaev719BXgN-17" value="" style="edgeStyle=orthogonalEdgeStyle;rounded=0;orthogonalLoop=1;jettySize=auto;html=1;endArrow=none;endFill=0;" parent="1" source="eH5JWXhEJGaev719BXgN-15" target="eH5JWXhEJGaev719BXgN-14" edge="1">
          <mxGeometry relative="1" as="geometry" />
        </mxCell>
        <mxCell id="eH5JWXhEJGaev719BXgN-15" value="" style="rhombus;whiteSpace=wrap;html=1;" parent="1" vertex="1">
          <mxGeometry x="1135" y="430" width="60" height="40" as="geometry" />
        </mxCell>
        <mxCell id="eH5JWXhEJGaev719BXgN-18" value="(0, N)" style="text;html=1;align=center;verticalAlign=middle;resizable=0;points=[];autosize=1;strokeColor=none;fillColor=none;" parent="1" vertex="1">
          <mxGeometry x="1160" y="390" width="50" height="30" as="geometry" />
        </mxCell>
        <mxCell id="eH5JWXhEJGaev719BXgN-19" value="(1, 1)" style="text;html=1;align=center;verticalAlign=middle;resizable=0;points=[];autosize=1;strokeColor=none;fillColor=none;" parent="1" vertex="1">
          <mxGeometry x="1165" y="480" width="50" height="30" as="geometry" />
        </mxCell>
        <mxCell id="eH5JWXhEJGaev719BXgN-20" value="&lt;font style=&quot;font-size: 10px;&quot;&gt;&lt;u&gt;Id&lt;/u&gt;&lt;/font&gt;" style="ellipse;whiteSpace=wrap;html=1;" parent="1" vertex="1">
          <mxGeometry x="1000" y="320" width="70" height="40" as="geometry" />
        </mxCell>
        <mxCell id="eH5JWXhEJGaev719BXgN-21" value="&lt;font style=&quot;font-size: 10px;&quot;&gt;&lt;u&gt;Name&lt;/u&gt;&lt;/font&gt;" style="ellipse;whiteSpace=wrap;html=1;" parent="1" vertex="1">
          <mxGeometry x="1260" y="320" width="70" height="40" as="geometry" />
        </mxCell>
        <mxCell id="eH5JWXhEJGaev719BXgN-22" value="" style="endArrow=none;html=1;rounded=0;entryX=0;entryY=0.5;entryDx=0;entryDy=0;endFill=0;exitX=1;exitY=0.5;exitDx=0;exitDy=0;" parent="1" target="eH5JWXhEJGaev719BXgN-14" edge="1" source="eH5JWXhEJGaev719BXgN-20">
          <mxGeometry width="50" height="50" relative="1" as="geometry">
            <mxPoint x="1110" y="780" as="sourcePoint" />
            <mxPoint x="1030" y="760" as="targetPoint" />
          </mxGeometry>
        </mxCell>
        <mxCell id="eH5JWXhEJGaev719BXgN-23" value="" style="endArrow=none;html=1;rounded=0;entryX=1;entryY=0.5;entryDx=0;entryDy=0;exitX=0;exitY=0.5;exitDx=0;exitDy=0;endFill=0;" parent="1" source="eH5JWXhEJGaev719BXgN-21" target="eH5JWXhEJGaev719BXgN-14" edge="1">
          <mxGeometry width="50" height="50" relative="1" as="geometry">
            <mxPoint x="1110" y="810" as="sourcePoint" />
            <mxPoint x="1138" y="790" as="targetPoint" />
          </mxGeometry>
        </mxCell>
        <mxCell id="eH5JWXhEJGaev719BXgN-24" value="&lt;font style=&quot;font-size: 10px;&quot;&gt;&lt;u&gt;Id&lt;/u&gt;&lt;/font&gt;" style="ellipse;whiteSpace=wrap;html=1;" parent="1" vertex="1">
          <mxGeometry x="1270" y="530" width="70" height="40" as="geometry" />
        </mxCell>
        <mxCell id="eH5JWXhEJGaev719BXgN-25" value="" style="endArrow=none;html=1;rounded=0;exitX=0;exitY=0.5;exitDx=0;exitDy=0;endFill=0;entryX=1;entryY=0.5;entryDx=0;entryDy=0;" parent="1" source="eH5JWXhEJGaev719BXgN-24" target="eH5JWXhEJGaev719BXgN-1" edge="1">
          <mxGeometry width="50" height="50" relative="1" as="geometry">
            <mxPoint x="930" y="600" as="sourcePoint" />
            <mxPoint x="980" y="550" as="targetPoint" />
          </mxGeometry>
        </mxCell>
        <mxCell id="oBNMJjGlO2YN45e5obql-4" value="" style="edgeStyle=orthogonalEdgeStyle;rounded=0;orthogonalLoop=1;jettySize=auto;html=1;entryX=0;entryY=0;entryDx=50;entryDy=0;entryPerimeter=0;endArrow=none;endFill=0;" edge="1" parent="1" source="eH5JWXhEJGaev719BXgN-28" target="oBNMJjGlO2YN45e5obql-2">
          <mxGeometry relative="1" as="geometry" />
        </mxCell>
        <mxCell id="eH5JWXhEJGaev719BXgN-28" value="Location" style="rounded=0;whiteSpace=wrap;html=1;" parent="1" vertex="1">
          <mxGeometry x="1090" y="680" width="150" height="80" as="geometry" />
        </mxCell>
        <mxCell id="eH5JWXhEJGaev719BXgN-30" value="&lt;font style=&quot;font-size: 10px;&quot;&gt;Name&lt;/font&gt;" style="ellipse;whiteSpace=wrap;html=1;" parent="1" vertex="1">
          <mxGeometry x="995" y="700" width="70" height="40" as="geometry" />
        </mxCell>
        <mxCell id="eH5JWXhEJGaev719BXgN-31" value="&lt;font style=&quot;font-size: 10px;&quot;&gt;&lt;u&gt;Id&lt;/u&gt;&lt;/font&gt;" style="ellipse;whiteSpace=wrap;html=1;" parent="1" vertex="1">
          <mxGeometry x="1270" y="690" width="70" height="40" as="geometry" />
        </mxCell>
        <mxCell id="eH5JWXhEJGaev719BXgN-39" value="" style="edgeStyle=orthogonalEdgeStyle;rounded=0;orthogonalLoop=1;jettySize=auto;html=1;endArrow=none;endFill=0;" parent="1" source="eH5JWXhEJGaev719BXgN-35" target="eH5JWXhEJGaev719BXgN-28" edge="1">
          <mxGeometry relative="1" as="geometry" />
        </mxCell>
        <mxCell id="eH5JWXhEJGaev719BXgN-40" value="" style="edgeStyle=orthogonalEdgeStyle;rounded=0;orthogonalLoop=1;jettySize=auto;html=1;endArrow=none;endFill=0;" parent="1" source="eH5JWXhEJGaev719BXgN-35" target="eH5JWXhEJGaev719BXgN-1" edge="1">
          <mxGeometry relative="1" as="geometry" />
        </mxCell>
        <mxCell id="eH5JWXhEJGaev719BXgN-35" value="" style="rhombus;whiteSpace=wrap;html=1;" parent="1" vertex="1">
          <mxGeometry x="1135" y="610" width="60" height="40" as="geometry" />
        </mxCell>
        <mxCell id="eH5JWXhEJGaev719BXgN-43" value="(1, 1)" style="text;html=1;align=center;verticalAlign=middle;resizable=0;points=[];autosize=1;strokeColor=none;fillColor=none;" parent="1" vertex="1">
          <mxGeometry x="1160" y="585" width="50" height="30" as="geometry" />
        </mxCell>
        <mxCell id="eH5JWXhEJGaev719BXgN-44" value="(1, N)" style="text;html=1;align=center;verticalAlign=middle;resizable=0;points=[];autosize=1;strokeColor=none;fillColor=none;" parent="1" vertex="1">
          <mxGeometry x="1160" y="650" width="50" height="30" as="geometry" />
        </mxCell>
        <mxCell id="eH5JWXhEJGaev719BXgN-45" value="" style="endArrow=none;html=1;rounded=0;exitX=1;exitY=0.5;exitDx=0;exitDy=0;entryX=0;entryY=0.5;entryDx=0;entryDy=0;endFill=0;" parent="1" source="eH5JWXhEJGaev719BXgN-30" target="eH5JWXhEJGaev719BXgN-28" edge="1">
          <mxGeometry width="50" height="50" relative="1" as="geometry">
            <mxPoint x="1260" y="494" as="sourcePoint" />
            <mxPoint x="1231" y="520" as="targetPoint" />
          </mxGeometry>
        </mxCell>
        <mxCell id="eH5JWXhEJGaev719BXgN-46" value="" style="endArrow=none;html=1;rounded=0;exitX=1;exitY=0.5;exitDx=0;exitDy=0;entryX=0;entryY=0.5;entryDx=0;entryDy=0;endFill=0;" parent="1" source="eH5JWXhEJGaev719BXgN-28" target="eH5JWXhEJGaev719BXgN-31" edge="1">
          <mxGeometry width="50" height="50" relative="1" as="geometry">
            <mxPoint x="1425" y="620" as="sourcePoint" />
            <mxPoint x="1428" y="600" as="targetPoint" />
          </mxGeometry>
        </mxCell>
        <mxCell id="eH5JWXhEJGaev719BXgN-47" value="&lt;font style=&quot;font-size: 10px;&quot;&gt;Source&lt;/font&gt;" style="ellipse;whiteSpace=wrap;html=1;" parent="1" vertex="1">
          <mxGeometry x="995" y="565" width="70" height="40" as="geometry" />
        </mxCell>
        <mxCell id="eH5JWXhEJGaev719BXgN-48" value="" style="endArrow=none;html=1;rounded=0;entryX=0;entryY=0.75;entryDx=0;entryDy=0;endFill=0;exitX=0.957;exitY=0.295;exitDx=0;exitDy=0;exitPerimeter=0;" parent="1" source="eH5JWXhEJGaev719BXgN-47" target="eH5JWXhEJGaev719BXgN-1" edge="1">
          <mxGeometry width="50" height="50" relative="1" as="geometry">
            <mxPoint x="1080" y="590" as="sourcePoint" />
            <mxPoint x="970" y="610" as="targetPoint" />
          </mxGeometry>
        </mxCell>
        <mxCell id="oBNMJjGlO2YN45e5obql-5" value="" style="group" vertex="1" connectable="0" parent="1">
          <mxGeometry x="1115" y="790" width="100" height="70" as="geometry" />
        </mxCell>
        <mxCell id="oBNMJjGlO2YN45e5obql-8" value="" style="group" vertex="1" connectable="0" parent="oBNMJjGlO2YN45e5obql-5">
          <mxGeometry width="100" height="70" as="geometry" />
        </mxCell>
        <mxCell id="oBNMJjGlO2YN45e5obql-2" value="" style="verticalLabelPosition=bottom;verticalAlign=top;html=1;shape=mxgraph.basic.acute_triangle;dx=0.5;" vertex="1" parent="oBNMJjGlO2YN45e5obql-8">
          <mxGeometry width="100" height="70" as="geometry" />
        </mxCell>
        <mxCell id="oBNMJjGlO2YN45e5obql-3" value="ISA" style="text;html=1;align=center;verticalAlign=middle;resizable=0;points=[];autosize=1;strokeColor=none;fillColor=none;" vertex="1" parent="oBNMJjGlO2YN45e5obql-8">
          <mxGeometry x="30" y="30" width="40" height="30" as="geometry" />
        </mxCell>
        <mxCell id="oBNMJjGlO2YN45e5obql-6" value="Automatic Location" style="rounded=0;whiteSpace=wrap;html=1;" vertex="1" parent="1">
          <mxGeometry x="940" y="880" width="150" height="80" as="geometry" />
        </mxCell>
        <mxCell id="oBNMJjGlO2YN45e5obql-7" value="Manual Location" style="rounded=0;whiteSpace=wrap;html=1;" vertex="1" parent="1">
          <mxGeometry x="1240" y="880" width="150" height="80" as="geometry" />
        </mxCell>
        <mxCell id="oBNMJjGlO2YN45e5obql-9" value="" style="endArrow=none;html=1;rounded=0;entryX=0;entryY=1;entryDx=0;entryDy=0;entryPerimeter=0;exitX=1;exitY=0;exitDx=0;exitDy=0;" edge="1" parent="1" source="oBNMJjGlO2YN45e5obql-6" target="oBNMJjGlO2YN45e5obql-2">
          <mxGeometry width="50" height="50" relative="1" as="geometry">
            <mxPoint x="1150" y="1020" as="sourcePoint" />
            <mxPoint x="1200" y="970" as="targetPoint" />
          </mxGeometry>
        </mxCell>
        <mxCell id="oBNMJjGlO2YN45e5obql-10" value="" style="endArrow=none;html=1;rounded=0;entryX=1;entryY=1;entryDx=0;entryDy=0;entryPerimeter=0;exitX=0;exitY=0;exitDx=0;exitDy=0;" edge="1" parent="1" source="oBNMJjGlO2YN45e5obql-7" target="oBNMJjGlO2YN45e5obql-2">
          <mxGeometry width="50" height="50" relative="1" as="geometry">
            <mxPoint x="1090" y="890" as="sourcePoint" />
            <mxPoint x="1125" y="870" as="targetPoint" />
          </mxGeometry>
        </mxCell>
        <mxCell id="oBNMJjGlO2YN45e5obql-12" value="" style="rounded=0;orthogonalLoop=1;jettySize=auto;html=1;endArrow=none;endFill=0;exitX=0.5;exitY=0;exitDx=0;exitDy=0;" edge="1" parent="1" source="oBNMJjGlO2YN45e5obql-11" target="oBNMJjGlO2YN45e5obql-6">
          <mxGeometry relative="1" as="geometry" />
        </mxCell>
        <mxCell id="oBNMJjGlO2YN45e5obql-11" value="&lt;font style=&quot;font-size: 10px;&quot;&gt;&lt;u&gt;Url&lt;/u&gt;&lt;/font&gt;" style="ellipse;whiteSpace=wrap;html=1;" vertex="1" parent="1">
          <mxGeometry x="1020" y="990" width="70" height="40" as="geometry" />
        </mxCell>
        <mxCell id="oBNMJjGlO2YN45e5obql-14" value="Author" style="rounded=0;whiteSpace=wrap;html=1;" vertex="1" parent="1">
          <mxGeometry x="1240" y="1060" width="150" height="80" as="geometry" />
        </mxCell>
        <mxCell id="oBNMJjGlO2YN45e5obql-15" value="" style="rhombus;whiteSpace=wrap;html=1;" vertex="1" parent="1">
          <mxGeometry x="1285" y="990" width="60" height="40" as="geometry" />
        </mxCell>
        <mxCell id="oBNMJjGlO2YN45e5obql-16" value="" style="endArrow=none;html=1;rounded=0;entryX=0.5;entryY=1;entryDx=0;entryDy=0;exitX=0.5;exitY=0;exitDx=0;exitDy=0;" edge="1" parent="1" source="oBNMJjGlO2YN45e5obql-15" target="oBNMJjGlO2YN45e5obql-7">
          <mxGeometry width="50" height="50" relative="1" as="geometry">
            <mxPoint x="1110" y="1050" as="sourcePoint" />
            <mxPoint x="1300" y="980" as="targetPoint" />
          </mxGeometry>
        </mxCell>
        <mxCell id="oBNMJjGlO2YN45e5obql-17" value="" style="endArrow=none;html=1;rounded=0;entryX=0.5;entryY=1;entryDx=0;entryDy=0;exitX=0.5;exitY=0;exitDx=0;exitDy=0;" edge="1" parent="1" source="oBNMJjGlO2YN45e5obql-14" target="oBNMJjGlO2YN45e5obql-15">
          <mxGeometry width="50" height="50" relative="1" as="geometry">
            <mxPoint x="1160" y="1130" as="sourcePoint" />
            <mxPoint x="1210" y="1080" as="targetPoint" />
          </mxGeometry>
        </mxCell>
        <mxCell id="oBNMJjGlO2YN45e5obql-18" value="(1, 1)" style="text;html=1;align=center;verticalAlign=middle;resizable=0;points=[];autosize=1;strokeColor=none;fillColor=none;" vertex="1" parent="1">
          <mxGeometry x="1310" y="960" width="50" height="30" as="geometry" />
        </mxCell>
        <mxCell id="oBNMJjGlO2YN45e5obql-19" value="(0, N)" style="text;html=1;align=center;verticalAlign=middle;resizable=0;points=[];autosize=1;strokeColor=none;fillColor=none;" vertex="1" parent="1">
          <mxGeometry x="1320" y="1030" width="50" height="30" as="geometry" />
        </mxCell>
        <mxCell id="oBNMJjGlO2YN45e5obql-21" value="&lt;font style=&quot;font-size: 10px;&quot;&gt;Information&lt;/font&gt;" style="ellipse;whiteSpace=wrap;html=1;" vertex="1" parent="1">
          <mxGeometry x="1420" y="900" width="70" height="40" as="geometry" />
        </mxCell>
        <mxCell id="oBNMJjGlO2YN45e5obql-22" value="" style="endArrow=none;html=1;rounded=0;entryX=0;entryY=0.5;entryDx=0;entryDy=0;exitX=1;exitY=0.5;exitDx=0;exitDy=0;" edge="1" parent="1" source="oBNMJjGlO2YN45e5obql-7" target="oBNMJjGlO2YN45e5obql-21">
          <mxGeometry width="50" height="50" relative="1" as="geometry">
            <mxPoint x="1150" y="1000" as="sourcePoint" />
            <mxPoint x="1200" y="950" as="targetPoint" />
          </mxGeometry>
        </mxCell>
        <mxCell id="oBNMJjGlO2YN45e5obql-23" value="&lt;span style=&quot;font-size: 10px;&quot;&gt;GPS Location&lt;/span&gt;" style="ellipse;whiteSpace=wrap;html=1;" vertex="1" parent="1">
          <mxGeometry x="1270" y="760" width="70" height="40" as="geometry" />
        </mxCell>
        <mxCell id="oBNMJjGlO2YN45e5obql-24" value="" style="endArrow=none;html=1;rounded=0;entryX=0;entryY=0;entryDx=0;entryDy=0;exitX=1;exitY=0.75;exitDx=0;exitDy=0;" edge="1" parent="1" source="eH5JWXhEJGaev719BXgN-28" target="oBNMJjGlO2YN45e5obql-23">
          <mxGeometry width="50" height="50" relative="1" as="geometry">
            <mxPoint x="990" y="850" as="sourcePoint" />
            <mxPoint x="1040" y="800" as="targetPoint" />
          </mxGeometry>
        </mxCell>
        <mxCell id="oBNMJjGlO2YN45e5obql-28" value="&lt;font style=&quot;font-size: 10px;&quot;&gt;&lt;u&gt;Backend Id&lt;/u&gt;&lt;/font&gt;" style="ellipse;whiteSpace=wrap;html=1;" vertex="1" parent="1">
          <mxGeometry x="925" y="990" width="70" height="40" as="geometry" />
        </mxCell>
        <mxCell id="oBNMJjGlO2YN45e5obql-29" value="" style="endArrow=none;html=1;rounded=0;entryX=0.5;entryY=0;entryDx=0;entryDy=0;exitX=0.25;exitY=1;exitDx=0;exitDy=0;" edge="1" parent="1" source="oBNMJjGlO2YN45e5obql-6" target="oBNMJjGlO2YN45e5obql-28">
          <mxGeometry width="50" height="50" relative="1" as="geometry">
            <mxPoint x="870" y="1060" as="sourcePoint" />
            <mxPoint x="920" y="1010" as="targetPoint" />
          </mxGeometry>
        </mxCell>
      </root>
    </mxGraphModel>
  </diagram>
</mxfile>
